<svg xmlns="http://www.w3.org/2000/svg" viewBox="0 0 32 32" fill="none">
  <defs>
    <linearGradient id="bg" x1="0" y1="0" x2="32" y2="32" gradientUnits="userSpaceOnUse">
      <stop offset="0%" stop-color="#DA7756"/><stop offset="100%" stop-color="#B8553A"/>
    </linearGradient>
  </defs>
  <rect width="32" height="32" rx="7" fill="url(#bg)"/>
  <path d="M 5 7 C 10 7, 11 13, 12.4 15" stroke="white" stroke-width="2" stroke-linecap="round" fill="none" opacity="0.5"/>
  <path d="M 5 16 C 9 16, 10.5 16, 12.4 16" stroke="white" stroke-width="2.2" stroke-linecap="round" fill="none" opacity="0.55"/>
  <path d="M 5 25 C 10 25, 11 19, 12.4 17" stroke="white" stroke-width="2" stroke-linecap="round" fill="none" opacity="0.5"/>
  <circle cx="4.5" cy="7" r="1.8" fill="white" opacity="0.55"/>
  <circle cx="4.5" cy="16" r="2" fill="white" opacity="0.7"/>
  <circle cx="4.5" cy="25" r="1.8" fill="white" opacity="0.55"/>
  <path d="M 12.4 18.8 V 13.2 L 14.2 16.8 L 16 12.4 L 17.8 16.8 L 19.6 13.2 V 18.8"
    stroke="white" stroke-width="1.2" stroke-linecap="round" stroke-linejoin="round" fill="none" opacity="0.95"/>
  <path d="M 19.6 15 C 21 13, 22 7, 27 7" stroke="white" stroke-width="2" stroke-linecap="round" fill="none" opacity="0.5"/>
  <path d="M 19.6 16 C 21.5 16, 23 16, 27 16" stroke="white" stroke-width="2.2" stroke-linecap="round" fill="none" opacity="0.55"/>
  <path d="M 19.6 17 C 21 19, 22 25, 27 25" stroke="white" stroke-width="2" stroke-linecap="round" fill="none" opacity="0.5"/>
  <circle cx="27.5" cy="7" r="1.8" fill="white" opacity="0.55"/>
  <circle cx="27.5" cy="16" r="2" fill="white" opacity="0.7"/>
  <circle cx="27.5" cy="25" r="1.8" fill="white" opacity="0.55"/>
</svg>
