<svg xmlns="http://www.w3.org/2000/svg" viewBox="0 0 32 32" fill="none">
  <defs>
    <linearGradient id="bg" x1="0" y1="0" x2="32" y2="32" gradientUnits="userSpaceOnUse">
      <stop offset="0%" stop-color="#DA7756"/><stop offset="100%" stop-color="#B8553A"/>
    </linearGradient>
    <mask id="m">
      <rect width="32" height="32" fill="white"/>
      <circle cx="12" cy="17.5" r="1.75" fill="black"/>
      <circle cx="20" cy="17.5" r="1.75" fill="black"/>
      <ellipse cx="16" cy="20.6" rx="1" ry="0.75" fill="black"/>
    </mask>
  </defs>
  <rect width="32" height="32" rx="7" fill="url(#bg)"/>
  <path d="M 16 25.3 C 8.7 25.3 4.9 21.3 4.9 17.2 C 4.9 14 6.3 13.4 8.3 15.4 C 8.1 10.3 6.1 5 7.2 4.4 C 8.9 3.4 11.8 8.2 13.4 12.2 C 14.3 10.7 14.9 10.3 16 10.3 C 17.1 10.3 17.7 10.7 18.6 12.2 C 20.2 8.2 23.1 3.4 24.8 4.4 C 25.9 5 23.9 10.3 23.7 15.4 C 25.7 13.4 27.1 14 27.1 17.2 C 27.1 21.3 23.3 25.3 16 25.3 Z" fill="white" opacity="0.88" mask="url(#m)"/>
  <path d="M 13.9 22.2 Q 16 24.3 18.1 22.2" stroke="white" stroke-width="0.9" stroke-linecap="round" fill="none" opacity="0.95"/>
  <path d="M 14 21 C 12.8 20.4 11 20.2 9.5 20.4 C 9 20.4 8.7 20.2 8.6 19.9" stroke="white" stroke-width="0.9" stroke-linecap="round" fill="none" opacity="0.7"/>
  <circle cx="8.6" cy="19.9" r="1.1" fill="white" opacity="0.75"/>
  <path d="M 14 22.2 C 12.6 22.2 11 22.6 9.5 23.3 C 9 23.5 8.7 23.3 8.6 23" stroke="white" stroke-width="0.8" stroke-linecap="round" fill="none" opacity="0.65"/>
  <circle cx="8.6" cy="23" r="1" fill="white" opacity="0.7"/>
  <path d="M 18 21 C 19.2 20.4 21 20.2 22.5 20.4 C 23 20.4 23.3 20.2 23.4 19.9" stroke="white" stroke-width="0.9" stroke-linecap="round" fill="none" opacity="0.7"/>
  <circle cx="23.4" cy="19.9" r="1.1" fill="white" opacity="0.75"/>
  <path d="M 18 22.2 C 19.4 22.2 21 22.6 22.5 23.3 C 23 23.5 23.3 23.3 23.4 23" stroke="white" stroke-width="0.8" stroke-linecap="round" fill="none" opacity="0.65"/>
  <circle cx="23.4" cy="23" r="1" fill="white" opacity="0.7"/>
</svg>